<svg xmlns="http://www.w3.org/2000/svg" version="1.1" xmlns:xlink="http://www.w3.org/1999/xlink" width="673" height="738"><svg width="673" height="738" viewBox="0 0 673 738" fill="none" xmlns="http://www.w3.org/2000/svg">
<path d="M337.432 20.0307C343.805 20.0659 349.632 21.8143 356.295 24.7641L356.289 24.7758L637.12 134.772L637.549 134.94L637.94 135.183C643.001 138.335 647.045 141.509 649.358 145.706C651.725 150.002 651.871 154.584 651.071 159.599V290.098L651.024 290.439C634.005 413.571 611.088 498.339 565.656 563.241C520.944 627.111 454.86 671.14 352.969 714.002C351.453 714.761 349.885 715.416 348.279 715.963C348.004 716.077 347.73 716.194 347.455 716.308L347.428 716.242C338.586 719.021 328.698 718.551 320.179 714.065C218.204 671.183 152.078 627.141 107.345 563.241C61.9121 498.339 38.9952 413.571 21.9769 290.439L21.93 290.098V159.6C21.1293 154.584 21.2757 150.003 23.6429 145.706C25.9556 141.509 29.9987 138.335 35.0599 135.183L35.4515 134.94L35.8802 134.772L316.933 24.6889L316.928 24.6752C317.432 24.4797 317.93 24.2889 318.422 24.1049L322.451 22.5278L322.509 22.6752C327.9 20.9305 332.685 20.0045 337.432 20.0307ZM115.183 516.826C120.338 526.236 125.871 535.187 131.829 543.74C144.019 561.238 158.026 577.121 174.28 591.873L393.26 420.788C391.811 417.659 391 414.175 391 410.5C391 396.969 401.97 386 415.502 386C429.035 386 440.005 396.969 440.005 410.5C440.005 424.031 429.034 435 415.502 435C409.256 435 403.556 432.661 399.229 428.814L181.926 598.588C205.41 618.556 233.332 636.495 266.844 653.68L370.503 573.129C368.28 569.441 367.001 565.12 367.001 560.5C367.001 546.97 377.971 536.001 391.503 536C405.035 536 416.006 546.969 416.006 560.5C416.006 574.031 405.035 585 391.503 585C386.223 585 381.333 583.33 377.332 580.489L276.744 658.651C291.421 665.883 307.121 673.004 323.935 680.108L323.956 680.072C324.072 680.138 324.189 680.201 324.306 680.265C325.658 680.836 327.017 681.407 328.383 681.977C332.955 683.358 337.967 683.227 342.618 681.698C343.845 681.185 345.066 680.672 346.282 680.159C346.387 680.104 346.494 680.052 346.598 679.997L346.61 680.02C434.861 642.714 492.438 604.975 532.02 552.671C528.374 518.704 524.223 487.386 519.311 458.374L519.182 458.407C499.348 376.582 475.036 313.404 442.648 260.981L115.183 516.826ZM391.503 550C385.704 550.001 381.003 554.702 381.003 560.5C381.003 566.299 385.705 571 391.503 571C397.302 571 402.003 566.299 402.003 560.5C402.003 554.701 397.302 550 391.503 550ZM335.975 55.7495C332.163 55.7283 327.902 56.6499 321.857 58.9203L261.888 82.5229C350.532 128.982 410.967 177.174 453.001 240.202L502.823 201.278L478.846 191.345C472.394 188.672 473.405 179.236 480.277 177.991L544.032 166.441L544.293 166.398C549.666 165.62 553.848 171.038 551.734 176.039L551.627 176.281L523.959 235.765C521.014 242.097 511.702 240.657 510.694 233.882L510.652 233.555L508.12 209.829L458.456 248.63C460.17 251.358 461.852 254.112 463.501 256.896C505.607 327.955 526.861 417.194 540.741 540.484C579.744 482.801 600.155 407.062 615.506 295.599V174.609L615.576 174.195C616.22 170.386 615.871 168.539 615.116 167.162C614.264 165.609 612.45 163.819 608.301 161.185L344.606 57.3959L344.62 57.3569C341.421 56.2643 338.704 55.7646 335.975 55.7495ZM62.0354 161.185C57.8875 163.819 56.0734 165.609 55.222 167.162C54.4664 168.54 54.1179 170.386 54.761 174.195L54.8313 174.609V285.752L149.679 211.65C147.967 208.305 147 204.516 147 200.5C147 186.969 157.97 176 171.502 176C185.035 176 196.005 186.969 196.005 200.5C196.005 214.031 185.034 225 171.502 225C165.599 225 160.184 222.912 155.954 219.436L55.1878 298.165C60.6968 337.768 66.8633 372.833 74.305 404.165L289.409 236.108C287.865 232.898 287 229.3 287 225.5C287 211.969 297.97 201 311.502 201C325.035 201 336.005 211.969 336.005 225.5C336.005 239.031 325.034 250 311.502 250C305.382 250 299.785 247.756 295.491 244.046L76.9222 414.811C85.9451 450.339 96.792 480.924 110.444 507.836L437.273 252.49C437.262 252.473 437.252 252.457 437.242 252.441C402.152 198.397 357.702 155.575 299.352 114.961L299.388 114.909C283.862 105.633 267.273 96.4928 249.537 87.3842L62.0354 161.185ZM415.502 400C409.703 400 405.002 404.701 405.002 410.5C405.002 416.299 409.703 421 415.502 421C421.301 421 426.002 416.299 426.002 410.5C426.002 404.701 421.301 400 415.502 400ZM311.502 215C305.703 215 301.002 219.701 301.002 225.5C301.002 231.299 305.703 236 311.502 236C317.301 236 322.002 231.299 322.002 225.5C322.002 219.701 317.301 215 311.502 215ZM499.148 186.767L514.748 193.23L514.968 193.326C517.144 194.316 518.666 196.349 519 198.716L519.03 198.955L520.674 214.374L536.677 179.968L499.148 186.767ZM171.502 190C165.703 190 161.002 194.701 161.002 200.5C161.002 206.299 165.703 211 171.502 211C177.301 211 182.002 206.299 182.002 200.5C182.002 194.701 177.301 190 171.502 190Z" fill="black"></path>
</svg><style>@media (prefers-color-scheme: light) { :root { filter: none; } }
@media (prefers-color-scheme: dark) { :root { filter: invert(100%); } }
</style></svg>